<svg id="Capa_1" data-name="Capa 1" xmlns="http://www.w3.org/2000/svg" viewBox="0 0 222.15 105.36"><defs><style>.cls-1{fill:#3fa9f5;}.cls-2{fill:#2e3192;}</style></defs><title>lOGO.2svg</title><path class="cls-1" d="M105.34,265.32l31.4,66.48h-7.27l-10.59-21.87h-29L79.39,331.8H71.88l31.81-66.48h1.65Zm-0.85,14.13L93,303.51h23Z" transform="translate(-71.88 -265.32)"/><path class="cls-2" d="M170.44,370.68a55.67,55.67,0,0,1-11.8-1.52c-3-.81-10.26-4.37-21.86-12.18-5.13-.3-12.83-1.93-18.78-7.41a30.47,30.47,0,0,1-10.47-23.25c0-17.36,11.9-32.69,31.91-32.69,15.7,0,30.07,12.18,30.07,31.37,0,16.85-10.67,27.11-21.45,30.56a141.15,141.15,0,0,0,23.09,13.1Zm-28.63-19.59a18.67,18.67,0,0,1,2.77,1.83c8.31-2.23,15.91-10.66,15.91-25.58,0-19.39-10.26-29.95-23.4-29.95-10.26,0-20.73,7.71-20.73,26.5,0,15.94,8.62,26.9,19.39,29.13Z" transform="translate(-71.88 -265.32)"/><path class="cls-1" d="M142.62,305.78h5.6v3.28a7,7,0,0,1,2.42-2.94,5.83,5.83,0,0,1,3.3-1,6.11,6.11,0,0,1,2.65.67l-2,5.62a4.49,4.49,0,0,0-1.89-.57,3,3,0,0,0-2.55,1.87q-1,1.87-1,7.32l0,1.27V331.8h-6.48v-26Z" transform="translate(-71.88 -265.32)"/><path class="cls-1" d="M160.6,296.19h6.53v9.59H171v5.62h-3.87v20.4H160.6V311.4h-3.35v-5.62h3.35v-9.59Z" transform="translate(-71.88 -265.32)"/><path class="cls-1" d="M174.47,305.78h6.6v12.53a17.36,17.36,0,0,0,.5,5.08,4.43,4.43,0,0,0,1.62,2.21,4.63,4.63,0,0,0,2.75.79,4.79,4.79,0,0,0,2.77-.78,4.56,4.56,0,0,0,1.69-2.28,17.53,17.53,0,0,0,.41-4.81V305.78h6.53v11q0,6.82-1.08,9.33a10.17,10.17,0,0,1-3.87,4.7,11.86,11.86,0,0,1-6.51,1.64,11.53,11.53,0,0,1-6.92-1.91,10.11,10.11,0,0,1-3.72-5.33q-0.77-2.37-.77-8.61V305.78Z" transform="translate(-71.88 -265.32)"/><path class="cls-1" d="M202.36,305.78H208v3.28a7,7,0,0,1,2.42-2.94,5.83,5.83,0,0,1,3.3-1,6.11,6.11,0,0,1,2.65.67l-2,5.62a4.49,4.49,0,0,0-1.89-.57,3,3,0,0,0-2.55,1.87q-1,1.87-1,7.32l0,1.27V331.8h-6.48v-26Z" transform="translate(-71.88 -265.32)"/><path class="cls-1" d="M231.78,305.11A13.79,13.79,0,0,1,238.7,307a13.51,13.51,0,0,1,6.88,11.82,13.67,13.67,0,0,1-1.83,6.89,13.2,13.2,0,0,1-5,5,13.78,13.78,0,0,1-7,1.81,13,13,0,0,1-9.56-4,13.8,13.8,0,0,1,.51-19.84A13.07,13.07,0,0,1,231.78,305.11Zm0.11,6.15a6.72,6.72,0,0,0-5.07,2.12,7.52,7.52,0,0,0-2,5.42,7.66,7.66,0,0,0,2,5.5,6.69,6.69,0,0,0,5.07,2.1,6.77,6.77,0,0,0,5.1-2.13,8.39,8.39,0,0,0,0-10.92A6.77,6.77,0,0,0,231.89,311.26Z" transform="translate(-71.88 -265.32)"/><path class="cls-2" d="M197.78,354.66a57,57,0,0,0-7.65,1.65l-0.4-.3v-3a24.49,24.49,0,0,1-2.75,2,6.89,6.89,0,0,1-3.8,1.25c-3.5,0-5.85-2.2-5.85-6.75v-9.3c0-2.35-.2-2.5-2.7-3v-1.5a57.53,57.53,0,0,0,7.7-.8c0,1.85-.1,4.25-0.1,7v6.5c0,3.45,1.75,4.55,3.55,4.55a5.45,5.45,0,0,0,4-1.75v-10.9c0-2.45-.15-2.65-3.15-3v-1.5a50.55,50.55,0,0,0,8.05-.8v15.2c0,2.35.35,2.8,2,2.85l1.2,0v1.6Z" transform="translate(-71.88 -265.32)"/><path class="cls-2" d="M200.43,355.76v-1.55c2.7-.35,3-0.55,3-3.7v-9.15c0-2.95-.25-3.1-2.75-3.5v-1.45a43,43,0,0,0,7.65-1.7v15.8c0,3.1.25,3.35,3.1,3.7v1.55H200.43Zm2.2-27.1a3,3,0,0,1,3-3,3,3,0,0,1,0,5.9A3,3,0,0,1,202.63,328.66Z" transform="translate(-71.88 -265.32)"/><path class="cls-2" d="M227.23,355.76v-1.55c2.25-.35,2.5-0.55,2.5-3.55v-7.9c0-3.25-1.35-4.7-3.55-4.7a6.4,6.4,0,0,0-4.1,1.85v11c0,2.85.2,3,2.5,3.35v1.55H214v-1.55c2.9-.4,3.15-0.55,3.15-3.45v-9.55c0-2.8-.25-3-2.6-3.35v-1.45a37.31,37.31,0,0,0,7.5-1.75v3.45c0.85-.65,1.8-1.35,2.9-2a6.47,6.47,0,0,1,3.7-1.35c3.75,0,6,2.7,6,7.2v9c0,2.85.3,3,2.8,3.35v1.55h-10.2Z" transform="translate(-71.88 -265.32)"/><path class="cls-2" d="M249.43,355.76a6.06,6.06,0,0,1-2,.55c-3.2,0-5.1-1.75-5.1-5.75v-13h-3l-0.2-.6,1.3-1.7h1.9v-3.2l4.25-3.4,0.7,0.25v6.35h4.85a1.78,1.78,0,0,1-.35,2.3h-4.5V349c0,3.6,1.55,4.15,2.6,4.15a5.83,5.83,0,0,0,2.55-.65l0.45,1.65Z" transform="translate(-71.88 -265.32)"/><path class="cls-2" d="M275.73,345.16c0,7.5-5.3,11.15-10.25,11.15A10.09,10.09,0,0,1,255,346c0-7.7,5.85-11.3,10.5-11.3C271.63,334.71,275.73,339.46,275.73,345.16Zm-15.15-.75c0,5.7,2.1,10.05,5.35,10.05,2.2,0,4.2-1.65,4.2-8.1,0-5.85-1.8-9.8-5.15-9.8C262.73,336.56,260.58,339.21,260.58,344.41Z" transform="translate(-71.88 -265.32)"/><path class="cls-2" d="M291.63,341.16c-1.15-3-2.6-4.65-4.75-4.65a2.69,2.69,0,0,0-2.6,2.8c0,1.65,1.35,2.65,3.65,3.7,3.6,1.5,6.1,3.2,6.1,6.65,0,4.45-4.25,6.65-8,6.65a10.47,10.47,0,0,1-5.7-1.6,29.58,29.58,0,0,1-.75-5.9l1.6-.15c0.85,3,2.9,5.8,5.65,5.8a2.77,2.77,0,0,0,2.85-2.75c0-1.7-1-2.8-3.6-4-2.4-1.2-5.85-2.85-5.85-6.6,0-3.5,2.85-6.4,7.5-6.4a9.79,9.79,0,0,1,4.3.85,27.86,27.86,0,0,1,1.1,5.15Z" transform="translate(-71.88 -265.32)"/></svg>